# xmcd
#
# Track frame offsets:
#	150
#	16990
#	29820
#	42504
#	54747
#	64649
#	78413
#	91122
#	107967
#	120673
#	131701
#	142976
#	156924
#	168299
#	178645
#	190138
#	202328
#	216258
#
# Disc length: 3111
#
# Revision: 1
# Processed by: cddbd v1.5.1PL0 Copyright (c) Steve Scherf et al.
# Submitted via: ExactAudioCopy v0.90b4
# Normalized: r0:DSETVAR1,TDELIM( - )
#
DISCID=090c2512
DTITLE=Various Artist - Blues Brother Soul Sister Vol. 2
DYEAR=1997
DGENRE=Blues
TTITLE0=Curtis Mayfield - Move on Up
TTITLE1=Jackie Wilson - I Get the Sweetest Feeling
TTITLE2=Al Green - Tired of Being Alone
TTITLE3=Ann Peebles - I'm Gonna Tear Your Playhouse Down
TTITLE4=John Lee Hooker - Dimples
TTITLE5=Etta James - I Just Want to Make Love to You
TTITLE6=The Impressions - It's All Right
TTITLE7=Millie Jackson - (If Loving You Is Wrong) I Don't Want to Be Right
TTITLE8=Mary Wells - My Guy
TTITLE9=The Capitols - Cool Jerk
TTITLE10=Barbara Lewis - Baby I'm Yours
TTITLE11=Joe Tex - Hold What You've Got
TTITLE12=Mel and Tim - Backfield in Motion
TTITLE13=Betty Everett - You're No Good
TTITLE14=Chuck Berry - Nadine
TTITLE15=The Kingsmen - Louie, Louie
TTITLE16=Aaron Neville - Tell It Like It Is
TTITLE17=Ramsey Lewis - Wade in the Water
EXTD=
EXTT0=
EXTT1=
EXTT2=
EXTT3=
EXTT4=
EXTT5=
EXTT6=
EXTT7=
EXTT8=
EXTT9=
EXTT10=
EXTT11=
EXTT12=
EXTT13=
EXTT14=
EXTT15=
EXTT16=
EXTT17=
PLAYORDER=
